<svg width="800" height="400" viewBox="0 0 800 400" xmlns="http://www.w3.org/2000/svg">
    <!-- Definici贸n del fondo del cielo con animaci贸n de transici贸n -->
    <defs>
        <linearGradient id="skyGradient" x1="0" y1="0" x2="0" y2="1">
            <stop offset="0%" stop-color="#ffcc00">
                <animate attributeName="stop-color" values="#ffcc00;#87CEEB;#1E3A5F;#ffcc00" dur="10s" repeatCount="indefinite"/>
            </stop>
            <stop offset="100%" stop-color="#87CEEB">
                <animate attributeName="stop-color" values="#87CEEB;#1E3A5F;#000033;#87CEEB" dur="10s" repeatCount="indefinite"/>
            </stop>
        </linearGradient>
    </defs>

    <!-- Fondo del cielo -->
    <rect width="100%" height="100%" fill="url(#skyGradient)" />

    <!-- Sol -->
    <circle cx="150" cy="50" r="30" fill="yellow">
        <animate attributeName="cy" values="50;150;350;50" dur="10s" repeatCount="indefinite" />
        <animate attributeName="cx" values="150;400;650;150" dur="10s" repeatCount="indefinite" />
        <animate attributeName="fill" values="yellow;orange;#ff4500;yellow" dur="10s" repeatCount="indefinite"/>
    </circle>

    <!-- Ciudad medieval pixelada -->
    <rect x="100" y="250" width="50" height="100" fill="#6b4e3d" />
    <rect x="150" y="230" width="50" height="120" fill="#6b4e3d" />
    <rect x="200" y="270" width="50" height="80" fill="#6b4e3d" />
    <rect x="250" y="240" width="50" height="110" fill="#6b4e3d" />
    <polygon points="150,230 175,180 200,230" fill="#5a3c2d" />
    <polygon points="250,240 275,190 300,240" fill="#5a3c2d" />

    <!-- Castillo -->
    <rect x="400" y="180" width="150" height="170" fill="#555" />
    <rect x="430" y="140" width="30" height="40" fill="#444" />
    <rect x="490" y="140" width="30" height="40" fill="#444" />
    <polygon points="400,180 475,100 550,180" fill="#333" />
    <rect x="460" y="250" width="30" height="50" fill="#222" />

    <!-- Estrellas -->
    <circle cx="700" cy="50" r="2" fill="white">
        <animate attributeName="opacity" values="0;0;1;1;0" dur="10s" repeatCount="indefinite" />
    </circle>
    <circle cx="750" cy="70" r="2" fill="white">
        <animate attributeName="opacity" values="0;0;1;1;0" dur="10s" repeatCount="indefinite" />
    </circle>
    <circle cx="730" cy="30" r="2" fill="white">
        <animate attributeName="opacity" values="0;0;1;1;0" dur="10s" repeatCount="indefinite" />
    </circle>

    <!-- Animaci贸n de la luna para simular la noche -->
    <circle cx="650" cy="350" r="30" fill="#ddd">
        <animate attributeName="cy" values="350;250;50;350" dur="10s" repeatCount="indefinite" />
        <animate attributeName="cx" values="650;400;150;650" dur="10s" repeatCount="indefinite" />
        <animate attributeName="fill" values="#ddd;#bbb;#999;#ddd" dur="10s" repeatCount="indefinite"/>
    </circle>

    <!-- Terreno -->
    <rect x="0" y="350" width="800" height="50" fill="#4e3d28" />
</svg>
